<mxfile host="app.diagrams.net" modified="2021-08-04T19:17:12.909Z" agent="5.0 (Windows NT 10.0; Win64; x64) AppleWebKit/537.36 (KHTML, like Gecko) Chrome/92.0.4515.131 Safari/537.36" etag="OzVRyUErrQ6Mn0ExjN7m" version="14.9.4" type="github">
  <diagram id="RVSgrC1tcD0l8_WjIEg8" name="Page-1">
    <mxGraphModel dx="2889" dy="1154" grid="1" gridSize="10" guides="1" tooltips="1" connect="1" arrows="1" fold="1" page="1" pageScale="1" pageWidth="827" pageHeight="1169" math="0" shadow="0">
      <root>
        <mxCell id="0" />
        <mxCell id="1" parent="0" />
        <mxCell id="aVrcM6raQkLTOF5AYdC3-1" value="&lt;div&gt;Heißwasser Bottich&lt;/div&gt;&lt;div&gt;100L&lt;br&gt;&lt;/div&gt;" style="shape=mxgraph.pid.vessels.pressurized_vessel;html=1;pointerEvents=1;align=center;verticalLabelPosition=bottom;verticalAlign=top;dashed=0;" parent="1" vertex="1">
          <mxGeometry x="130" y="210" width="100" height="200" as="geometry" />
        </mxCell>
        <mxCell id="aVrcM6raQkLTOF5AYdC3-2" value="&lt;div&gt;Maische/Läuter Bottich&lt;/div&gt;&lt;div&gt;200L&lt;br&gt;&lt;/div&gt;" style="shape=mxgraph.pid.vessels.pressurized_vessel;html=1;pointerEvents=1;align=center;verticalLabelPosition=bottom;verticalAlign=top;dashed=0;" parent="1" vertex="1">
          <mxGeometry x="334" y="160" width="160" height="250" as="geometry" />
        </mxCell>
        <mxCell id="y3y6gryk2shh6xnr3OrI-5" style="edgeStyle=orthogonalEdgeStyle;rounded=0;orthogonalLoop=1;jettySize=auto;html=1;endArrow=none;endFill=0;strokeWidth=3;fillColor=#dae8fc;strokeColor=#6c8ebf;dashed=1;" edge="1" parent="1" source="aVrcM6raQkLTOF5AYdC3-4">
          <mxGeometry relative="1" as="geometry">
            <mxPoint x="410" y="100" as="targetPoint" />
            <Array as="points">
              <mxPoint x="670" y="100" />
            </Array>
          </mxGeometry>
        </mxCell>
        <mxCell id="aVrcM6raQkLTOF5AYdC3-4" value="&lt;div&gt;Koch Bottich&lt;/div&gt;&lt;div&gt;200L&lt;br&gt;&lt;/div&gt;" style="shape=mxgraph.pid.vessels.pressurized_vessel;html=1;pointerEvents=1;align=center;verticalLabelPosition=bottom;verticalAlign=top;dashed=0;" parent="1" vertex="1">
          <mxGeometry x="590" y="160" width="160" height="250" as="geometry" />
        </mxCell>
        <mxCell id="aVrcM6raQkLTOF5AYdC3-5" value="" style="shape=mxgraph.pid.heat_exchangers.u_shaped_tubes_heat_exchanger;html=1;pointerEvents=1;align=left;verticalLabelPosition=middle;verticalAlign=middle;dashed=0;labelPosition=right;" parent="1" vertex="1">
          <mxGeometry x="130" y="360" width="100" height="30" as="geometry" />
        </mxCell>
        <mxCell id="aVrcM6raQkLTOF5AYdC3-6" value="&lt;div&gt;Heizelemente&lt;/div&gt;&lt;div&gt;2x 3kW&lt;br&gt;&lt;/div&gt;" style="shape=mxgraph.pid.heat_exchangers.u_shaped_tubes_heat_exchanger;html=1;pointerEvents=1;align=left;verticalLabelPosition=middle;verticalAlign=middle;dashed=0;labelPosition=right;spacingTop=38;" parent="1" vertex="1">
          <mxGeometry x="130" y="320" width="100" height="30" as="geometry" />
        </mxCell>
        <mxCell id="aVrcM6raQkLTOF5AYdC3-8" style="edgeStyle=orthogonalEdgeStyle;rounded=0;orthogonalLoop=1;jettySize=auto;html=1;entryX=0;entryY=0.725;entryDx=0;entryDy=0;entryPerimeter=0;" parent="1" source="aVrcM6raQkLTOF5AYdC3-7" target="aVrcM6raQkLTOF5AYdC3-1" edge="1">
          <mxGeometry relative="1" as="geometry" />
        </mxCell>
        <mxCell id="aVrcM6raQkLTOF5AYdC3-7" value="&lt;div&gt;6 kW&amp;nbsp; erwärmt 100L&lt;/div&gt;&lt;div&gt;von 40°C auf 65°C&lt;/div&gt;&lt;div&gt;in ca. 30 min.&lt;br&gt;&lt;/div&gt;" style="text;html=1;align=center;verticalAlign=middle;resizable=0;points=[];autosize=1;strokeColor=none;labelBackgroundColor=#FFF2CC;" parent="1" vertex="1">
          <mxGeometry x="-30" y="330" width="120" height="50" as="geometry" />
        </mxCell>
        <mxCell id="aVrcM6raQkLTOF5AYdC3-9" value="&lt;div&gt;Heizelement&lt;/div&gt;&lt;div&gt;4x 3kW&lt;br&gt;&lt;/div&gt;" style="shape=mxgraph.pid.heat_exchangers.u_shaped_tubes_heat_exchanger;html=1;pointerEvents=1;align=left;verticalLabelPosition=middle;verticalAlign=middle;dashed=0;labelPosition=right;flipH=1;spacingTop=0;spacingBottom=120;" parent="1" vertex="1">
          <mxGeometry x="650" y="360" width="100" height="30" as="geometry" />
        </mxCell>
        <mxCell id="aVrcM6raQkLTOF5AYdC3-10" value="" style="shape=mxgraph.pid.heat_exchangers.u_shaped_tubes_heat_exchanger;html=1;pointerEvents=1;align=left;verticalLabelPosition=middle;verticalAlign=middle;dashed=0;labelPosition=right;flipH=1;" parent="1" vertex="1">
          <mxGeometry x="650" y="320" width="100" height="30" as="geometry" />
        </mxCell>
        <mxCell id="aVrcM6raQkLTOF5AYdC3-11" value="" style="shape=mxgraph.pid.heat_exchangers.u_shaped_tubes_heat_exchanger;html=1;pointerEvents=1;align=left;verticalLabelPosition=middle;verticalAlign=middle;dashed=0;labelPosition=right;flipH=1;" parent="1" vertex="1">
          <mxGeometry x="650" y="280" width="100" height="30" as="geometry" />
        </mxCell>
        <mxCell id="aVrcM6raQkLTOF5AYdC3-12" value="" style="shape=mxgraph.pid.heat_exchangers.u_shaped_tubes_heat_exchanger;html=1;pointerEvents=1;align=left;verticalLabelPosition=middle;verticalAlign=middle;dashed=0;labelPosition=right;flipH=1;" parent="1" vertex="1">
          <mxGeometry x="650" y="240" width="100" height="30" as="geometry" />
        </mxCell>
        <mxCell id="aVrcM6raQkLTOF5AYdC3-14" style="rounded=0;orthogonalLoop=1;jettySize=auto;html=1;exitX=0.651;exitY=-0.02;exitDx=0;exitDy=0;exitPerimeter=0;" parent="1" source="aVrcM6raQkLTOF5AYdC3-13" edge="1">
          <mxGeometry relative="1" as="geometry">
            <mxPoint x="790" y="330" as="targetPoint" />
            <mxPoint x="790" y="470" as="sourcePoint" />
          </mxGeometry>
        </mxCell>
        <mxCell id="aVrcM6raQkLTOF5AYdC3-13" value="&lt;div&gt;Die Speidel Braumeister 200L hat 3x 3kW Heizelemente&lt;/div&gt;&lt;div&gt;und es wurde bemängelt dass die Heizleitung knapp bemessen ist&lt;/div&gt;&lt;div&gt;Dem soll daher mit einem 4ten Heizelement entgegengewirkt werden&lt;br&gt;&lt;/div&gt;" style="text;html=1;align=center;verticalAlign=middle;resizable=0;points=[];autosize=1;strokeColor=none;labelBackgroundColor=#FFF2CC;" parent="1" vertex="1">
          <mxGeometry x="550" y="480" width="370" height="50" as="geometry" />
        </mxCell>
        <mxCell id="aVrcM6raQkLTOF5AYdC3-19" style="edgeStyle=orthogonalEdgeStyle;rounded=0;orthogonalLoop=1;jettySize=auto;html=1;exitX=0;exitY=0.5;exitDx=0;exitDy=0;exitPerimeter=0;endArrow=none;endFill=0;entryX=1;entryY=1.067;entryDx=0;entryDy=0;entryPerimeter=0;fillColor=#f8cecc;strokeColor=#b85450;strokeWidth=3;" parent="1" source="aVrcM6raQkLTOF5AYdC3-15" target="aVrcM6raQkLTOF5AYdC3-5" edge="1">
          <mxGeometry relative="1" as="geometry">
            <Array as="points">
              <mxPoint x="280" y="392" />
            </Array>
          </mxGeometry>
        </mxCell>
        <mxCell id="aVrcM6raQkLTOF5AYdC3-15" value="" style="shape=mxgraph.pid.pumps.vacuum_pump;html=1;pointerEvents=1;align=center;verticalLabelPosition=bottom;verticalAlign=top;dashed=0;labelBackgroundColor=#FFF2CC;rotation=90;" parent="1" vertex="1">
          <mxGeometry x="230" y="431" width="99" height="49" as="geometry" />
        </mxCell>
        <mxCell id="aVrcM6raQkLTOF5AYdC3-20" style="edgeStyle=orthogonalEdgeStyle;rounded=0;orthogonalLoop=1;jettySize=auto;html=1;exitX=0;exitY=0.2;exitDx=0;exitDy=0;exitPerimeter=0;entryX=1;entryY=0.28;entryDx=0;entryDy=0;entryPerimeter=0;endArrow=none;endFill=0;fillColor=#f8cecc;strokeColor=#b85450;strokeWidth=3;" parent="1" source="aVrcM6raQkLTOF5AYdC3-17" target="aVrcM6raQkLTOF5AYdC3-1" edge="1">
          <mxGeometry relative="1" as="geometry" />
        </mxCell>
        <mxCell id="aVrcM6raQkLTOF5AYdC3-21" style="edgeStyle=orthogonalEdgeStyle;rounded=0;orthogonalLoop=1;jettySize=auto;html=1;exitX=0;exitY=0.8;exitDx=0;exitDy=0;exitPerimeter=0;entryX=1;entryY=0.5;entryDx=0;entryDy=0;entryPerimeter=0;endArrow=none;endFill=0;strokeWidth=3;fillColor=#f8cecc;strokeColor=#b85450;" parent="1" source="aVrcM6raQkLTOF5AYdC3-17" target="aVrcM6raQkLTOF5AYdC3-15" edge="1">
          <mxGeometry relative="1" as="geometry" />
        </mxCell>
        <mxCell id="aVrcM6raQkLTOF5AYdC3-22" style="edgeStyle=orthogonalEdgeStyle;rounded=0;orthogonalLoop=1;jettySize=auto;html=1;exitX=0.11;exitY=1;exitDx=0;exitDy=0;exitPerimeter=0;endArrow=none;endFill=0;strokeWidth=3;fillColor=#dae8fc;strokeColor=#6c8ebf;entryX=0.498;entryY=0.005;entryDx=0;entryDy=0;entryPerimeter=0;" parent="1" source="aVrcM6raQkLTOF5AYdC3-17" target="aVrcM6raQkLTOF5AYdC3-2" edge="1">
          <mxGeometry relative="1" as="geometry">
            <mxPoint x="527" y="60" as="targetPoint" />
            <Array as="points">
              <mxPoint x="250" y="540" />
              <mxPoint x="250" y="100" />
              <mxPoint x="414" y="100" />
            </Array>
          </mxGeometry>
        </mxCell>
        <mxCell id="aVrcM6raQkLTOF5AYdC3-25" style="edgeStyle=orthogonalEdgeStyle;rounded=0;orthogonalLoop=1;jettySize=auto;html=1;exitX=0.11;exitY=0;exitDx=0;exitDy=0;exitPerimeter=0;entryX=1;entryY=0.5;entryDx=0;entryDy=0;entryPerimeter=0;endArrow=none;endFill=0;strokeWidth=3;fillColor=#dae8fc;strokeColor=#6c8ebf;" parent="1" source="aVrcM6raQkLTOF5AYdC3-17" target="aVrcM6raQkLTOF5AYdC3-24" edge="1">
          <mxGeometry relative="1" as="geometry" />
        </mxCell>
        <mxCell id="aVrcM6raQkLTOF5AYdC3-17" value="" style="shape=mxgraph.pid.heat_exchangers.double_pipe_heat_exchanger;html=1;pointerEvents=1;align=center;verticalLabelPosition=bottom;verticalAlign=top;dashed=0;labelBackgroundColor=#FFF2CC;rotation=90;" parent="1" vertex="1">
          <mxGeometry x="250" y="550" width="90" height="50" as="geometry" />
        </mxCell>
        <mxCell id="aVrcM6raQkLTOF5AYdC3-26" style="edgeStyle=orthogonalEdgeStyle;rounded=0;orthogonalLoop=1;jettySize=auto;html=1;exitX=0;exitY=0.5;exitDx=0;exitDy=0;exitPerimeter=0;entryX=1;entryY=0.5;entryDx=0;entryDy=0;endArrow=none;endFill=0;strokeWidth=3;fillColor=#dae8fc;strokeColor=#6c8ebf;" parent="1" source="aVrcM6raQkLTOF5AYdC3-24" target="aVrcM6raQkLTOF5AYdC3-35" edge="1">
          <mxGeometry relative="1" as="geometry">
            <Array as="points">
              <mxPoint x="520" y="378" />
            </Array>
          </mxGeometry>
        </mxCell>
        <mxCell id="aVrcM6raQkLTOF5AYdC3-24" value="" style="shape=mxgraph.pid.pumps.vacuum_pump;html=1;pointerEvents=1;align=center;verticalLabelPosition=bottom;verticalAlign=top;dashed=0;labelBackgroundColor=#FFF2CC;rotation=90;" parent="1" vertex="1">
          <mxGeometry x="470" y="441" width="99" height="49" as="geometry" />
        </mxCell>
        <mxCell id="aVrcM6raQkLTOF5AYdC3-29" style="edgeStyle=orthogonalEdgeStyle;rounded=0;orthogonalLoop=1;jettySize=auto;html=1;endArrow=classicThin;endFill=1;strokeWidth=1;exitX=0.485;exitY=0;exitDx=0;exitDy=0;exitPerimeter=0;entryX=0.633;entryY=0.84;entryDx=0;entryDy=0;entryPerimeter=0;" parent="1" source="aVrcM6raQkLTOF5AYdC3-27" target="aVrcM6raQkLTOF5AYdC3-17" edge="1">
          <mxGeometry relative="1" as="geometry">
            <mxPoint x="410" y="655" as="targetPoint" />
            <Array as="points">
              <mxPoint x="220" y="640" />
              <mxPoint x="220" y="587" />
            </Array>
          </mxGeometry>
        </mxCell>
        <mxCell id="aVrcM6raQkLTOF5AYdC3-27" value="&lt;div&gt;Plattenwärmetauscher&lt;/div&gt;&lt;div&gt;für Würze&lt;br&gt;&lt;/div&gt;" style="text;html=1;align=center;verticalAlign=middle;resizable=0;points=[];autosize=1;strokeColor=none;labelBackgroundColor=#FFF2CC;" parent="1" vertex="1">
          <mxGeometry x="160" y="640" width="130" height="30" as="geometry" />
        </mxCell>
        <mxCell id="aVrcM6raQkLTOF5AYdC3-31" style="rounded=0;orthogonalLoop=1;jettySize=auto;html=1;entryX=0.5;entryY=0;entryDx=0;entryDy=0;entryPerimeter=0;endArrow=classicThin;endFill=1;strokeWidth=1;" parent="1" source="aVrcM6raQkLTOF5AYdC3-30" target="aVrcM6raQkLTOF5AYdC3-15" edge="1">
          <mxGeometry relative="1" as="geometry" />
        </mxCell>
        <mxCell id="aVrcM6raQkLTOF5AYdC3-32" style="edgeStyle=none;rounded=0;orthogonalLoop=1;jettySize=auto;html=1;entryX=0.5;entryY=1;entryDx=0;entryDy=0;entryPerimeter=0;endArrow=classicThin;endFill=1;strokeWidth=1;" parent="1" source="aVrcM6raQkLTOF5AYdC3-30" target="aVrcM6raQkLTOF5AYdC3-24" edge="1">
          <mxGeometry relative="1" as="geometry" />
        </mxCell>
        <mxCell id="aVrcM6raQkLTOF5AYdC3-30" value="&lt;div&gt;2x Würzepumpe&lt;/div&gt;&lt;div&gt;24L/min&lt;/div&gt;" style="text;html=1;align=center;verticalAlign=middle;resizable=0;points=[];autosize=1;strokeColor=none;labelBackgroundColor=#FFF2CC;" parent="1" vertex="1">
          <mxGeometry x="364" y="640" width="100" height="30" as="geometry" />
        </mxCell>
        <mxCell id="aVrcM6raQkLTOF5AYdC3-34" style="edgeStyle=none;rounded=0;orthogonalLoop=1;jettySize=auto;html=1;endArrow=classicThin;endFill=1;strokeWidth=1;" parent="1" source="aVrcM6raQkLTOF5AYdC3-33" edge="1">
          <mxGeometry relative="1" as="geometry">
            <mxPoint x="420" y="90" as="targetPoint" />
          </mxGeometry>
        </mxCell>
        <mxCell id="aVrcM6raQkLTOF5AYdC3-33" value="&lt;div&gt;Loses Ende um es zum &lt;br&gt;&lt;/div&gt;&lt;div&gt;abläutern umzuhängen&lt;/div&gt;&lt;div&gt;oder mittels Steckverbindung&lt;br&gt;&lt;/div&gt;" style="text;html=1;align=center;verticalAlign=middle;resizable=0;points=[];autosize=1;strokeColor=none;labelBackgroundColor=#FFF2CC;" parent="1" vertex="1">
          <mxGeometry x="364" y="20" width="170" height="50" as="geometry" />
        </mxCell>
        <mxCell id="aVrcM6raQkLTOF5AYdC3-35" value="" style="whiteSpace=wrap;html=1;labelBackgroundColor=#FFF2CC;" parent="1" vertex="1">
          <mxGeometry x="336" y="363" width="156" height="30" as="geometry" />
        </mxCell>
        <mxCell id="aVrcM6raQkLTOF5AYdC3-37" style="edgeStyle=none;rounded=0;orthogonalLoop=1;jettySize=auto;html=1;endArrow=classicThin;endFill=1;strokeWidth=1;" parent="1" source="aVrcM6raQkLTOF5AYdC3-36" target="aVrcM6raQkLTOF5AYdC3-35" edge="1">
          <mxGeometry relative="1" as="geometry" />
        </mxCell>
        <mxCell id="aVrcM6raQkLTOF5AYdC3-36" value="&lt;div&gt;Halo Filter um die Pumpe und Wärmetauscher&lt;/div&gt;&lt;div&gt;vor der Maische zu schützen&lt;/div&gt;" style="text;html=1;align=center;verticalAlign=middle;resizable=0;points=[];autosize=1;strokeColor=none;labelBackgroundColor=#FFF2CC;" parent="1" vertex="1">
          <mxGeometry x="480" y="640" width="260" height="30" as="geometry" />
        </mxCell>
        <mxCell id="y3y6gryk2shh6xnr3OrI-4" value="" style="endArrow=none;html=1;strokeWidth=3;" edge="1" parent="1" source="aVrcM6raQkLTOF5AYdC3-2">
          <mxGeometry width="50" height="50" relative="1" as="geometry">
            <mxPoint x="444" y="260" as="sourcePoint" />
            <mxPoint x="494" y="210" as="targetPoint" />
          </mxGeometry>
        </mxCell>
      </root>
    </mxGraphModel>
  </diagram>
</mxfile>
